<svg viewBox="459.0392 385.5991 301.4608 75.8018" width="5000" height="1257.2414058477918" xmlns="http://www.w3.org/2000/svg" xmlns:xlink="http://www.w3.org/1999/xlink" preserveAspectRatio="none"><defs></defs><style>.aD6z1nYkhcolor {fill:#FFFFFF;fill-opacity:1;}.aD6z1nYkhstrokeColor-str {stroke:#D9D9D9;stroke-opacity:1;}.aRXoNp7NGQcolors-0 {fill:#FFFFFF;fill-opacity:1;}</style><g opacity="1" transform="rotate(0 514.714 392.3167)">
<svg width="245.786" height="62.3665" x="514.714" y="392.3167" version="1.1" preserveAspectRatio="none" viewBox="1.48 -31.48 154.64000000000001 39.24">
  <g transform="matrix(1 0 0 1 0 0)" class="aD6z1nYkhcolor"><path id="id-D6z1nYkh6" d="M11.56-21.84Q16.56-21.84 19.24-19.46Q21.92-17.08 21.92-12.28L21.92-12.28L21.92 0L16.08 0L16.08-2.68Q14.32 0.32 9.52 0.32L9.52 0.32Q7.04 0.32 5.22-0.52Q3.40-1.36 2.44-2.84Q1.48-4.32 1.48-6.20L1.48-6.20Q1.48-9.20 3.74-10.92Q6-12.64 10.72-12.64L10.72-12.64L15.68-12.64Q15.68-14.68 14.44-15.78Q13.20-16.88 10.72-16.88L10.72-16.88Q9-16.88 7.34-16.34Q5.68-15.80 4.52-14.88L4.52-14.88L2.28-19.24Q4.04-20.48 6.50-21.16Q8.96-21.84 11.56-21.84L11.56-21.84ZM11.08-3.88Q12.68-3.88 13.92-4.62Q15.16-5.36 15.68-6.80L15.68-6.80L15.68-9L11.40-9Q7.56-9 7.56-6.48L7.56-6.48Q7.56-5.28 8.50-4.58Q9.44-3.88 11.08-3.88L11.08-3.88Z M40.28-21.84Q43.28-21.84 45.74-20.46Q48.20-19.08 49.60-16.58Q51-14.08 51-10.76L51-10.76Q51-7.44 49.60-4.94Q48.20-2.44 45.74-1.06Q43.28 0.32 40.28 0.32L40.28 0.32Q36.16 0.32 33.80-2.28L33.80-2.28L33.80 7.76L27.56 7.76L27.56-21.52L33.52-21.52L33.52-19.04Q35.84-21.84 40.28-21.84L40.28-21.84ZM39.20-4.80Q41.60-4.80 43.14-6.42Q44.68-8.04 44.68-10.76L44.68-10.76Q44.68-13.48 43.14-15.10Q41.60-16.72 39.20-16.72L39.20-16.72Q36.80-16.72 35.26-15.10Q33.72-13.48 33.72-10.76L33.72-10.76Q33.72-8.04 35.26-6.42Q36.80-4.80 39.20-4.80L39.20-4.80Z M55.16 0L55.16-21.52L61.40-21.52L61.40 0L55.16 0ZM58.28-24.52Q56.56-24.52 55.48-25.52Q54.40-26.52 54.40-28L54.40-28Q54.40-29.48 55.48-30.48Q56.56-31.48 58.28-31.48L58.28-31.48Q60-31.48 61.08-30.52Q62.16-29.56 62.16-28.12L62.16-28.12Q62.16-26.56 61.08-25.54Q60-24.52 58.28-24.52L58.28-24.52Z M94.76-21.84Q98.80-21.84 101.18-19.46Q103.56-17.08 103.56-12.32L103.56-12.32L103.56 0L97.32 0L97.32-11.36Q97.32-13.92 96.26-15.18Q95.20-16.44 93.24-16.44L93.24-16.44Q91.04-16.44 89.76-15.02Q88.48-13.60 88.48-10.80L88.48-10.80L88.48 0L82.24 0L82.24-11.36Q82.24-16.44 78.16-16.44L78.16-16.44Q76-16.44 74.72-15.02Q73.44-13.60 73.44-10.80L73.44-10.80L73.44 0L67.20 0L67.20-21.52L73.16-21.52L73.16-19.04Q74.36-20.40 76.10-21.12Q77.84-21.84 79.92-21.84L79.92-21.84Q82.20-21.84 84.04-20.94Q85.88-20.04 87-18.32L87-18.32Q88.32-20 90.34-20.92Q92.36-21.84 94.76-21.84L94.76-21.84Z M125.08-29.68L131.32-29.68L131.32 0L125.36 0L125.36-2.48Q123.04 0.32 118.64 0.32L118.64 0.32Q115.60 0.32 113.14-1.04Q110.68-2.40 109.28-4.92Q107.88-7.44 107.88-10.76L107.88-10.76Q107.88-14.08 109.28-16.60Q110.68-19.12 113.14-20.48Q115.60-21.84 118.64-21.84L118.64-21.84Q122.76-21.84 125.08-19.24L125.08-19.24L125.08-29.68ZM119.72-4.80Q122.08-4.80 123.64-6.42Q125.20-8.04 125.20-10.76L125.20-10.76Q125.20-13.48 123.64-15.10Q122.08-16.72 119.72-16.72L119.72-16.72Q117.32-16.72 115.76-15.10Q114.20-13.48 114.20-10.76L114.20-10.76Q114.20-8.04 115.76-6.42Q117.32-4.80 119.72-4.80L119.72-4.80Z M145.76-21.84Q150.76-21.84 153.44-19.46Q156.12-17.08 156.12-12.28L156.12-12.28L156.12 0L150.28 0L150.28-2.68Q148.52 0.32 143.72 0.32L143.72 0.32Q141.24 0.32 139.42-0.52Q137.60-1.36 136.64-2.84Q135.68-4.32 135.68-6.20L135.68-6.20Q135.68-9.20 137.94-10.92Q140.20-12.64 144.92-12.64L144.92-12.64L149.88-12.64Q149.88-14.68 148.64-15.78Q147.40-16.88 144.92-16.88L144.92-16.88Q143.20-16.88 141.54-16.34Q139.88-15.80 138.72-14.88L138.72-14.88L136.48-19.24Q138.24-20.48 140.70-21.16Q143.16-21.84 145.76-21.84L145.76-21.84ZM145.28-3.88Q146.88-3.88 148.12-4.62Q149.36-5.36 149.88-6.80L149.88-6.80L149.88-9L145.60-9Q141.76-9 141.76-6.48L141.76-6.48Q141.76-5.28 142.70-4.58Q143.64-3.88 145.28-3.88L145.28-3.88Z"/></g>
</svg>
</g><g opacity="1" transform="rotate(0 459.0392 385.5991)">
<svg width="42.9217" height="75.8018" x="459.0392" y="385.5991" version="1.1" preserveAspectRatio="none" viewBox="23.666751861572266 3.49399995803833 52.66619873046875 93.01100158691406">
  <g transform="matrix(1 0 0 1 0 0)" class="aRXoNp7NGQcolors-0"><path d="M76.165,78.99c-8.267-0.469-12.182-9.128-15.079-15.729c-3.488-7.949-6.98-15.897-10.475-23.845  c-1.607-3.654-3.222-7.306-4.831-10.959c0.001-0.003,0.001-0.009,0.003-0.012c-0.001,0.003-0.003,0.006-0.004,0.009  c-1.783-4.048-3.56-8.099-5.352-12.142C37.442,9.579,31.449,4.336,23.922,3.494c0.514,0.058-0.776,17.43,0,17.517  c7.282,0.815,13.415,5.857,16.327,12.419c0.571,1.287,1.138,2.575,1.707,3.863C35.945,51.192,29.934,65.091,23.922,78.99  c-0.231,0.533-0.057,2.1-0.062,2.565c-0.021,2.064-0.026,4.129-0.026,6.193c0,2.063,0.005,4.128,0.026,6.192  c0.003,0.315,0.241,2.151,0.062,2.565c7.287-16.848,14.574-33.696,21.861-50.544c0-0.001,0-0.002,0.001-0.003  c1.498,3.403,2.994,6.808,4.491,10.212c3.539,8.047,7.075,16.096,10.609,24.146c2.951,6.725,6.814,15.708,15.28,16.188  C75.968,96.496,76.627,79.017,76.165,78.99z"></path></g>
</svg>
</g></svg>